<svg width="31" height="31" viewBox="0 0 31 31" fill="none" xmlns="http://www.w3.org/2000/svg">
<path d="M0 1.78125C0 1.50775 0.108649 1.24544 0.302046 1.05205C0.495443 0.858649 0.757746 0.75 1.03125 0.75H4.125C4.35503 0.750064 4.57844 0.827036 4.7597 0.968676C4.94095 1.11032 5.06964 1.30849 5.12531 1.53169L5.96063 4.875H29.9063C30.0577 4.87514 30.2072 4.90862 30.3442 4.97307C30.4813 5.03752 30.6024 5.13136 30.6991 5.24791C30.7957 5.36446 30.8655 5.50087 30.9035 5.64744C30.9415 5.79402 30.9468 5.94716 30.9189 6.096L27.8252 22.596C27.781 22.8323 27.6555 23.0457 27.4706 23.1994C27.2857 23.3531 27.0529 23.4373 26.8125 23.4375H8.25C8.00958 23.4373 7.77679 23.3531 7.59188 23.1994C7.40697 23.0457 7.28155 22.8323 7.23731 22.596L4.14563 6.12694L3.32063 2.8125H1.03125C0.757746 2.8125 0.495443 2.70385 0.302046 2.51045C0.108649 2.31706 0 2.05475 0 1.78125ZM6.39788 6.9375L9.10594 21.375H25.9566L28.6646 6.9375H6.39788ZM10.3125 23.4375C9.21848 23.4375 8.16927 23.8721 7.39569 24.6457C6.6221 25.4193 6.1875 26.4685 6.1875 27.5625C6.1875 28.6565 6.6221 29.7057 7.39569 30.4793C8.16927 31.2529 9.21848 31.6875 10.3125 31.6875C11.4065 31.6875 12.4557 31.2529 13.2293 30.4793C14.0029 29.7057 14.4375 28.6565 14.4375 27.5625C14.4375 26.4685 14.0029 25.4193 13.2293 24.6457C12.4557 23.8721 11.4065 23.4375 10.3125 23.4375ZM24.75 23.4375C23.656 23.4375 22.6068 23.8721 21.8332 24.6457C21.0596 25.4193 20.625 26.4685 20.625 27.5625C20.625 28.6565 21.0596 29.7057 21.8332 30.4793C22.6068 31.2529 23.656 31.6875 24.75 31.6875C25.844 31.6875 26.8932 31.2529 27.6668 30.4793C28.4404 29.7057 28.875 28.6565 28.875 27.5625C28.875 26.4685 28.4404 25.4193 27.6668 24.6457C26.8932 23.8721 25.844 23.4375 24.75 23.4375ZM10.3125 25.5C10.8595 25.5 11.3841 25.7173 11.7709 26.1041C12.1577 26.4909 12.375 27.0155 12.375 27.5625C12.375 28.1095 12.1577 28.6341 11.7709 29.0209C11.3841 29.4077 10.8595 29.625 10.3125 29.625C9.76549 29.625 9.24089 29.4077 8.85409 29.0209C8.4673 28.6341 8.25 28.1095 8.25 27.5625C8.25 27.0155 8.4673 26.4909 8.85409 26.1041C9.24089 25.7173 9.76549 25.5 10.3125 25.5ZM24.75 25.5C25.297 25.5 25.8216 25.7173 26.2084 26.1041C26.5952 26.4909 26.8125 27.0155 26.8125 27.5625C26.8125 28.1095 26.5952 28.6341 26.2084 29.0209C25.8216 29.4077 25.297 29.625 24.75 29.625C24.203 29.625 23.6784 29.4077 23.2916 29.0209C22.9048 28.6341 22.6875 28.1095 22.6875 27.5625C22.6875 27.0155 22.9048 26.4909 23.2916 26.1041C23.6784 25.7173 24.203 25.5 24.75 25.5V25.5Z" fill="white"/>
</svg>
